<svg xmlns="http://www.w3.org/2000/svg" viewBox="0 0 64 64">
  <rect width="64" height="64" rx="14" fill="rgb(245,241,230)"/>
  <g fill="none" stroke="rgb(29,92,69)" stroke-width="2.4">
    <circle cx="32" cy="32" r="27"/>
    <circle cx="32" cy="32" r="18.5"/>
  </g>
  <g stroke="rgb(29,92,69)" stroke-width="1.6">
    <line x1="42.50" y1="32.00" x2="47.50" y2="32.00"/>
    <line x1="41.87" y1="35.59" x2="46.57" y2="37.30"/>
    <line x1="40.04" y1="38.75" x2="43.87" y2="41.96"/>
    <line x1="37.25" y1="41.09" x2="39.75" y2="45.42"/>
    <line x1="33.82" y1="42.34" x2="34.69" y2="47.26"/>
    <line x1="30.18" y1="42.34" x2="29.31" y2="47.26"/>
    <line x1="26.75" y1="41.09" x2="24.25" y2="45.42"/>
    <line x1="23.96" y1="38.75" x2="20.13" y2="41.96"/>
    <line x1="22.13" y1="35.59" x2="17.43" y2="37.30"/>
    <line x1="21.50" y1="32.00" x2="16.50" y2="32.00"/>
    <line x1="22.13" y1="28.41" x2="17.43" y2="26.70"/>
    <line x1="23.96" y1="25.25" x2="20.13" y2="22.04"/>
    <line x1="26.75" y1="22.91" x2="24.25" y2="18.58"/>
    <line x1="30.18" y1="21.66" x2="29.31" y2="16.74"/>
    <line x1="33.82" y1="21.66" x2="34.69" y2="16.74"/>
    <line x1="37.25" y1="22.91" x2="39.75" y2="18.58"/>
    <line x1="40.04" y1="25.25" x2="43.87" y2="22.04"/>
    <line x1="41.87" y1="28.41" x2="46.57" y2="26.70"/>
  </g>
  <circle cx="32" cy="32" r="5.4" fill="rgb(29,92,69)"/>
</svg>
